<svg width="16.000000" height="12.000000" viewBox="0 0 16 12" fill="none" xmlns="http://www.w3.org/2000/svg" xmlns:xlink="http://www.w3.org/1999/xlink">
	<desc>
			Created with Pixso.
	</desc>
	<defs/>
	<path d="M1.5 0L14.5 0C15.31 0 16 0.68 16 1.5L16 10.5C16 11.34 15.31 12 14.5 12L1.5 12C0.65 12 0 11.34 0 10.5L0 1.5C0 0.68 0.65 0 1.5 0ZM14.5 2.78L14.5 1.5L1.5 1.5L1.5 2.78C2.18 3.37 3.31 4.25 5.68 6.12C5.78 6.19 5.9 6.29 6.02 6.39C6.58 6.86 7.38 7.52 8 7.5C8.58 7.52 9.37 6.87 9.93 6.4C10.06 6.29 10.18 6.2 10.28 6.12C12.65 4.25 13.78 3.37 14.5 2.78ZM1.5 4.71L1.5 10.5L14.5 10.5L14.5 4.71C13.78 5.28 12.75 6.09 11.21 7.31C11.09 7.4 10.95 7.51 10.8 7.63C10.08 8.22 9.08 9.02 8 9C6.84 9.02 5.78 8.15 5.07 7.57C4.95 7.47 4.84 7.38 4.75 7.31C3.21 6.09 2.18 5.28 1.5 4.71Z" fill="#363838" fill-opacity="1.000000" fill-rule="evenodd"/>
</svg>
