<svg width="15.000000" height="15.000000" viewBox="0 0 15 15" fill="none" xmlns="http://www.w3.org/2000/svg" xmlns:xlink="http://www.w3.org/1999/xlink">
	<desc>
			Created with Pixso.
	</desc>
	<defs/>
	<path d="M7 -0.75C11.28 -0.75 14.75 2.71 14.75 7C14.75 10.87 11.9 14.09 8.18 14.65L8.18 9.25L10 9.25L10.34 7L8.18 7L8.18 5.56C8.18 4.93 8.5 4.34 9.46 4.34L10.43 4.34L10.43 2.43C10.43 2.43 9.56 2.28 8.68 2.28C6.93 2.28 5.78 3.37 5.78 5.31L5.78 7L3.81 7L3.81 9.25L5.78 9.25L5.78 14.65C2.06 14.09 -0.75 10.87 -0.75 7C-0.75 2.71 2.71 -0.75 7 -0.75Z" fill="#707070" fill-opacity="1.000000" fill-rule="evenodd"/>
</svg>
