<svg width="14.000000" height="14.000000" viewBox="0 0 14 14" fill="none" xmlns="http://www.w3.org/2000/svg" xmlns:xlink="http://www.w3.org/1999/xlink">
	<desc>
			Created with Pixso.
	</desc>
	<defs/>
	<path d="M12.81 0.18C13.62 1 13.87 2 13.93 3.12C14 4.28 14 7.75 13.93 8.9C13.87 10.03 13.62 11 12.81 11.84C12 12.65 11 12.9 9.87 12.96C8.71 13.03 5.25 13.03 4.09 12.96C2.96 12.9 2 12.65 1.15 11.84C0.34 11 0.09 10.03 0.03 8.9C-0.04 7.75 -0.04 4.28 0.03 3.12C0.09 2 0.34 1 1.15 0.18C2 -0.63 2.96 -0.88 4.09 -0.94C5.25 -1 8.71 -1 9.87 -0.94C11 -0.88 12 -0.63 12.81 0.18ZM11.12 11.46C11.71 11.21 12.21 10.75 12.43 10.12C12.75 9.35 12.73 7.65 12.72 6.53C12.72 6.33 12.71 6.15 12.71 6C12.71 5.85 12.72 5.67 12.72 5.48C12.73 4.37 12.75 2.67 12.43 1.87C12.18 1.28 11.71 0.78 11.12 0.56C10.32 0.24 8.62 0.26 7.51 0.27C7.32 0.27 7.14 0.28 7 0.28C6.84 0.28 6.66 0.27 6.46 0.27C5.34 0.26 3.64 0.24 2.87 0.56C2.25 0.81 1.78 1.28 1.53 1.87C1.21 2.67 1.23 4.37 1.24 5.48C1.24 5.67 1.25 5.85 1.25 6C1.25 6.15 1.24 6.33 1.24 6.53C1.23 7.65 1.21 9.35 1.53 10.12C1.78 10.75 2.25 11.21 2.87 11.46C3.64 11.78 5.34 11.76 6.46 11.75C6.66 11.75 6.84 11.75 7 11.75C7.14 11.75 7.32 11.75 7.51 11.75C8.62 11.76 10.32 11.78 11.12 11.46ZM10.71 1.43C11.18 1.43 11.56 1.81 11.56 2.28C11.56 2.75 11.18 3.12 10.71 3.12C10.25 3.12 9.87 2.75 9.87 2.28C9.87 1.81 10.25 1.43 10.71 1.43ZM3.4 6C3.4 4.03 5 2.4 7 2.4C8.96 2.4 10.59 4.03 10.59 6C10.59 8 8.96 9.59 7 9.59C5 9.59 3.4 8 3.4 6ZM4.65 6C4.65 7.31 5.71 8.34 7 8.34C8.28 8.34 9.31 7.31 9.31 6C9.31 4.71 8.28 3.68 7 3.68C5.68 3.68 4.65 4.71 4.65 6Z" fill="#707070" fill-opacity="1.000000" fill-rule="evenodd"/>
</svg>
