<svg width="16.000000" height="15.000000" viewBox="0 0 16 15" fill="none" xmlns="http://www.w3.org/2000/svg" xmlns:xlink="http://www.w3.org/1999/xlink">
	<desc>
			Created with Pixso.
	</desc>
	<defs/>
	<path d="M7.75 -0.75C12.03 -0.75 15.5 2.71 15.5 7C15.5 11.28 12.03 14.75 7.75 14.75C6.93 14.75 6.15 14.65 5.43 14.4C5.75 13.9 6.21 13.06 6.4 12.37C6.5 12.03 6.87 10.53 6.87 10.53C7.12 11.03 7.87 11.43 8.65 11.43C11 11.43 12.68 9.28 12.68 6.62C12.68 4.06 10.59 2.12 7.9 2.12C4.56 2.12 2.78 4.37 2.78 6.81C2.78 7.96 3.37 9.37 4.34 9.84C4.5 9.9 4.59 9.87 4.62 9.71C4.62 9.62 4.78 9.09 4.84 8.84C4.84 8.78 4.84 8.68 4.78 8.62C4.46 8.25 4.21 7.53 4.21 6.84C4.21 5.15 5.5 3.5 7.71 3.5C9.59 3.5 10.93 4.78 10.93 6.65C10.93 8.75 9.87 10.18 8.5 10.18C7.75 10.18 7.18 9.56 7.34 8.81C7.56 7.87 8 6.87 8 6.21C8 5.62 7.68 5.12 7.03 5.12C6.25 5.12 5.62 5.93 5.62 7C5.62 7.68 5.84 8.15 5.84 8.15C5.84 8.15 5.09 11.4 4.93 12C4.78 12.68 4.84 13.62 4.9 14.21C2.03 13.09 0 10.31 0 7C0 2.71 3.46 -0.75 7.75 -0.75Z" fill="#707070" fill-opacity="1.000000" fill-rule="evenodd"/>
</svg>
