<svg width="14.000000" height="14.000000" viewBox="0 0 14 14" fill="none" xmlns="http://www.w3.org/2000/svg" xmlns:xlink="http://www.w3.org/1999/xlink">
	<desc>
			Created with Pixso.
	</desc>
	<defs/>
	<path d="M6.96 0C8.84 0 10.59 0.75 11.87 2.06C13.18 3.37 14 5.09 14 6.96C14 10.78 10.81 13.9 6.96 13.9C5.81 13.9 4.68 13.59 3.65 13.06L0 14L0.96 10.4C0.37 9.37 0.03 8.18 0.03 6.93C0.03 3.12 3.15 0 6.96 0ZM4.03 11.9C4.93 12.43 5.93 12.71 6.96 12.71C10.15 12.71 12.81 10.12 12.81 6.96C12.81 5.4 12.15 3.96 11.06 2.87C9.96 1.78 8.53 1.18 7 1.18C3.81 1.18 1.21 3.78 1.21 6.93C1.21 8.03 1.53 9.09 2.09 10.03L2.25 10.25L1.65 12.37L3.84 11.78L4.03 11.9ZM8.96 7.84C9.12 7.9 9.96 8.31 10.15 8.4C10.31 8.5 10.43 8.53 10.46 8.62C10.53 8.68 10.53 9.03 10.37 9.43C10.21 9.84 9.53 10.21 9.21 10.25C8.65 10.34 8.21 10.31 7.12 9.81C5.37 9.06 4.25 7.31 4.15 7.21C4.06 7.09 3.46 6.28 3.46 5.4C3.46 4.56 3.9 4.15 4.06 3.96C4.21 3.78 4.4 3.75 4.53 3.75L4.84 3.75C4.85 3.75 4.86 3.74 4.87 3.74C4.98 3.74 5.1 3.74 5.25 4.06C5.37 4.4 5.75 5.25 5.78 5.34C5.81 5.43 5.84 5.53 5.78 5.65C5.64 5.95 5.48 6.1 5.37 6.21C5.24 6.35 5.17 6.42 5.28 6.59C5.96 7.75 6.62 8.15 7.65 8.65C7.81 8.75 7.9 8.71 8.03 8.62C8.12 8.5 8.46 8.09 8.56 7.93C8.68 7.75 8.81 7.78 8.96 7.84Z" fill="#707070" fill-opacity="1.000000" fill-rule="evenodd"/>
</svg>
