<svg width="17.000000" height="12.000000" viewBox="0 0 17 12" fill="none" xmlns="http://www.w3.org/2000/svg" xmlns:xlink="http://www.w3.org/1999/xlink">
	<desc>
			Created with Pixso.
	</desc>
	<defs/>
	<path d="M14.65 0.37C15.37 0.56 15.96 1.15 16.15 1.9C16.53 3.21 16.53 6.03 16.53 6.03C16.53 6.03 16.53 8.81 16.15 10.15C15.96 10.9 15.37 11.46 14.65 11.65C13.31 12 8 12 8 12C8 12 2.65 12 1.31 11.65C0.59 11.46 0 10.9 -0.19 10.15C-0.57 8.81 -0.57 6.03 -0.57 6.03C-0.57 6.03 -0.57 3.21 -0.19 1.9C0 1.15 0.59 0.56 1.31 0.37C2.65 0 8 0 8 0C8 0 13.31 0 14.65 0.37ZM10.68 6.03L6.25 3.5L6.25 8.56L10.68 6.03Z" fill="#707070" fill-opacity="1.000000" fill-rule="evenodd"/>
</svg>
